<svg id="Layer_2" data-name="Layer 2" xmlns="http://www.w3.org/2000/svg" width="24" height="24" viewBox="0 0 24 24">
  <rect id="Rectangle_1" data-name="Rectangle 1" width="24" height="24" transform="translate(24 24) rotate(180)" fill="#fff" opacity="0"/>
  <path id="github" d="M12,1A10.89,10.89,0,0,0,1,11.77,10.79,10.79,0,0,0,8.52,22c.55.1.75-.23.75-.52V19.65c-3.06.65-3.71-1.44-3.71-1.44a2.86,2.86,0,0,0-1.22-1.58c-1-.66.08-.65.08-.65A2.31,2.31,0,0,1,6.1,17.09a2.37,2.37,0,0,0,3.2.89,2.33,2.33,0,0,1,.7-1.44c-2.44-.27-5-1.19-5-5.32A4.15,4.15,0,0,1,6.11,8.31a3.78,3.78,0,0,1,.11-2.84s.93-.29,3,1.1a10.68,10.68,0,0,1,5.5,0c2.1-1.39,3-1.1,3-1.1a3.78,3.78,0,0,1,.11,2.84A4.15,4.15,0,0,1,19,11.2c0,4.14-2.58,5.05-5,5.32a2.5,2.5,0,0,1,.75,2v2.95c0,.35.2.63.75.52A10.8,10.8,0,0,0,23,11.77,10.89,10.89,0,0,0,12,1" fill="#fff"/>
</svg>
