<svg xmlns="http://www.w3.org/2000/svg" width="30" height="22" viewBox="0 0 30 22">
  <g id="Layer_6" data-name="Layer 6" transform="translate(-1 -5)">
    <path id="Path_1" data-name="Path 1" d="M3.64,6,16,14.77,28.36,6a1,1,0,0,1,1.08,0,4.08,4.08,0,0,0-2.52-1H5.08a4.08,4.08,0,0,0-2.52.9A1,1,0,0,1,3.64,6Z" fill="#8775de"/>
    <path id="Path_2" data-name="Path 2" d="M29.56,6a.86.86,0,0,1,.19.19,1,1,0,0,1-.23,1.39L16.58,16.81a1,1,0,0,1-1.16,0L2.48,7.57a1,1,0,0,1-.23-1.39A.86.86,0,0,1,2.44,6,4.08,4.08,0,0,0,1,9.08V22.92A4.08,4.08,0,0,0,5.08,27H26.92A4.08,4.08,0,0,0,31,22.92V9.08A4.08,4.08,0,0,0,29.56,6ZM13.78,18.81,3.64,26.05a1,1,0,1,1-1.16-1.62l10.14-7.24a1,1,0,0,1,1.16,1.62Zm16,7a.987.987,0,0,1-1.39.23L18.22,18.81a1,1,0,1,1,1.16-1.62l10.14,7.24a1,1,0,0,1,.23,1.39Z" fill="#8775de"/>
  </g>
</svg>
